<?xml version="1.0" standalone="no"?>
<!DOCTYPE svg PUBLIC "-//W3C//DTD SVG 20010904//EN"
 "http://www.w3.org/TR/2001/REC-SVG-20010904/DTD/svg10.dtd">
<svg version="1.0" xmlns="http://www.w3.org/2000/svg"
 width="500.000000pt" height="500.000000pt" viewBox="0 0 500.000000 500.000000"
 preserveAspectRatio="xMidYMid meet">
<metadata>
Created by potrace 1.14, written by Peter Selinger 2001-2017
</metadata>
<g transform="translate(0.000000,500.000000) scale(0.100000,-0.100000)"
fill="#000000" stroke="none">
<path d="M0 2500 l0 -2500 2500 0 2500 0 0 2500 0 2500 -2500 0 -2500 0 0
-2500z m2618 1553 c130 -231 214 -398 249 -498 26 -74 28 -91 28 -235 0 -131
-4 -167 -22 -232 -44 -151 -137 -321 -251 -458 -26 -30 -166 -176 -312 -325
-146 -148 -289 -301 -317 -339 -124 -167 -194 -336 -214 -514 l-12 -103 -23
22 c-48 45 -149 198 -200 304 -129 267 -153 520 -73 759 63 190 153 311 445
601 227 226 303 316 401 477 132 217 193 410 193 614 0 57 2 104 4 104 2 0 49
-80 104 -177z m497 -1088 c197 -344 233 -596 120 -840 -52 -112 -114 -186
-358 -425 -126 -124 -256 -260 -288 -303 -72 -95 -132 -217 -156 -314 -9 -40
-20 -73 -23 -73 -11 0 -129 185 -154 241 -39 90 -59 186 -59 289 0 114 19 195
72 305 51 108 109 181 243 311 262 253 344 355 428 529 60 122 79 192 87 313
7 110 6 111 88 -33z m375 -930 c62 -112 102 -245 103 -340 2 -169 -43 -245
-297 -504 -163 -166 -187 -195 -224 -270 -23 -46 -45 -101 -48 -122 -4 -22
-10 -39 -15 -39 -13 0 -67 84 -102 158 -30 64 -32 73 -32 188 l0 121 44 88
c39 78 61 106 191 239 151 156 214 237 256 333 30 66 54 163 54 218 1 38 1 39
16 20 8 -11 33 -52 54 -90z"/>
</g>
</svg>
